<svg width="56" height="56" viewBox="0 0 56 56" fill="none" xmlns="http://www.w3.org/2000/svg">
<path d="M0 28C0 12.536 12.536 0 28 0V0C43.464 0 56 12.536 56 28V28C56 43.464 43.464 56 28 56V56C12.536 56 0 43.464 0 28V28Z" fill="#CBDAF1"/>
<path d="M24.5 34.4167H18.0833M21.5833 28H16.3333M24.5 21.5833H18.6667M33.8333 17.5L26.1375 28.2742C25.7969 28.7511 25.6266 28.9895 25.6339 29.1883C25.6403 29.3614 25.7233 29.5226 25.8604 29.6285C26.0179 29.75 26.3109 29.75 26.897 29.75H32.6667L31.5 38.5L39.1958 27.7258C39.5365 27.2489 39.7068 27.0105 39.6994 26.8117C39.693 26.6386 39.61 26.4774 39.4729 26.3715C39.3154 26.25 39.0224 26.25 38.4364 26.25H32.6667L33.8333 17.5Z" stroke="#1B3761" stroke-width="2" stroke-linecap="round" stroke-linejoin="round"/>
</svg>
